<svg id="Layer_1" data-name="Layer 1" xmlns="http://www.w3.org/2000/svg" viewBox="0 0 108.2 137.95"><defs><style>.cls-1{fill:none}.cls-2{clip-path:url(#clip-path)}.cls-3{fill:#20c4f4}</style><clipPath id="clip-path"><path class="cls-1" d="M0 0h108.2v137.95H0z"/></clipPath></defs><title>logo-fip</title><g class="cls-2"><path d="M32.08 56.79a6.74 6.74 0 1 1 6.74 6.74 6.74 6.74 0 0 1-6.74-6.74M31.16 72v47.26H46.1v-42c0-5.74-2.42-5.22-14.94-5.22m-27.9-2.62V72H0v12.63h3.26v34.67h14.93V84.63h7.59V72h-7.59v-3.57c0-6.33 6.95-5.6 9-5.31V50.51a42.7 42.7 0 0 0-6.19-.24c-10 .34-17.74 8.29-17.74 19.15m71.57 50.79a32.77 32.77 0 0 1-6.43-.91V138H53.47V72c11.81 0 14.94-.26 14.94 5.22a13.09 13.09 0 0 1 11.32-6.12c10 0 16.66 7.06 16.66 22.72 0 17.74-9.6 26.34-21.55 26.34m-.45-36.57a9.66 9.66 0 0 0-6 2v20.91a9.91 9.91 0 0 0 4.89 1c5.34 0 7.33-3 7.33-12.67 0-9.23-2.35-11.22-6.24-11.22"/><path class="cls-3" d="M78.06 0c-16 0-30.13 12.08-30.13 31 0 22.35 18.08 26.62 20.27 33a5.34 5.34 0 0 1 .27 1.93S74.6 63.7 75.21 59c.2-1.53.6-4.56-3.65-7.45-4.82-3.28-9.16-6.22-11.11-11.14-.68-1.72-.91-3.84-.11-4.65.35-.36.78-.37 2-.49 3.36-.32 9.52-.48 15.69-.48s13.22.25 15.66.48c1.25.12 1.68.14 2 .49.61.62.77 2.33-.08 4.65a15.24 15.24 0 0 1-6.11 7.36c-3 2-5.58 3-6.83 4.61a3.71 3.71 0 0 0-.49 3.52 5.44 5.44 0 0 0 5.4 3.59c2.26 0 5.37-1 9.58-4.42 7.28-5.86 11-15.05 11-24.1C108.2 12.09 94 0 78.06 0m10.72 55.28a1.68 1.68 0 1 1 1.68-1.68 1.68 1.68 0 0 1-1.68 1.68m5.78-25c-5.36 0-6.23-1.11-7.17-3.65-1.59-4.31-4.52-7.36-9.33-7.36s-7.74 3.05-9.33 7.36c-.94 2.54-1.81 3.65-7.17 3.65-1.61 0-2.46-.19-2.36-2.11a18.93 18.93 0 0 1 37.72 0c.1 1.91-.75 2.11-2.36 2.11"/></g></svg>