<svg xmlns="http://www.w3.org/2000/svg" xmlns:xlink="http://www.w3.org/1999/xlink" viewBox="0 0 880 414" font-family="-apple-system, BlinkMacSystemFont, 'Segoe UI', Roboto, Helvetica, Arial, sans-serif" role="img" aria-label="Animation: three chained Fourier epicycles, each tracing its own DNA/RNA/Metabolism sine wave; together they sum to a composite wave labelled phenotype.">
<rect x="6" y="6" width="868" height="402" rx="18" fill="#f8fafc" stroke="#e2e8f0" stroke-width="1.5"/>
<text x="440" y="40" text-anchor="middle" font-size="20" font-weight="700" fill="#334155">Fourier harmonics</text>
<line x1="322" y1="106" x2="840" y2="106" stroke="#e9ecef" stroke-width="1.5"/>
<text x="308" y="110" text-anchor="end" font-size="12" font-weight="700" fill="#4dabf7">DNA</text>
<path id="w0" d="M 322.00 106.00 L 326.32 104.64 L 330.63 103.28 L 334.95 101.93 L 339.27 100.59 L 343.58 99.27 L 347.90 97.97 L 352.22 96.68 L 356.53 95.42 L 360.85 94.20 L 365.17 93.00 L 369.48 91.84 L 373.80 90.72 L 378.12 89.64 L 382.43 88.60 L 386.75 87.62 L 391.07 86.68 L 395.38 85.79 L 399.70 84.97 L 404.02 84.19 L 408.33 83.48 L 412.65 82.83 L 416.97 82.25 L 421.28 81.73 L 425.60 81.27 L 429.92 80.89 L 434.23 80.57 L 438.55 80.32 L 442.87 80.14 L 447.18 80.04 L 451.50 80.00 L 455.82 80.04 L 460.13 80.14 L 464.45 80.32 L 468.77 80.57 L 473.08 80.89 L 477.40 81.27 L 481.72 81.73 L 486.03 82.25 L 490.35 82.83 L 494.67 83.48 L 498.98 84.19 L 503.30 84.97 L 507.62 85.79 L 511.93 86.68 L 516.25 87.62 L 520.57 88.60 L 524.88 89.64 L 529.20 90.72 L 533.52 91.84 L 537.83 93.00 L 542.15 94.20 L 546.47 95.42 L 550.78 96.68 L 555.10 97.97 L 559.42 99.27 L 563.73 100.59 L 568.05 101.93 L 572.37 103.28 L 576.68 104.64 L 581.00 106.00 L 585.32 107.36 L 589.63 108.72 L 593.95 110.07 L 598.27 111.41 L 602.58 112.73 L 606.90 114.03 L 611.22 115.32 L 615.53 116.58 L 619.85 117.80 L 624.17 119.00 L 628.48 120.16 L 632.80 121.28 L 637.12 122.36 L 641.43 123.40 L 645.75 124.38 L 650.07 125.32 L 654.38 126.21 L 658.70 127.03 L 663.02 127.81 L 667.33 128.52 L 671.65 129.17 L 675.97 129.75 L 680.28 130.27 L 684.60 130.73 L 688.92 131.11 L 693.23 131.43 L 697.55 131.68 L 701.87 131.86 L 706.18 131.96 L 710.50 132.00 L 714.82 131.96 L 719.13 131.86 L 723.45 131.68 L 727.77 131.43 L 732.08 131.11 L 736.40 130.73 L 740.72 130.27 L 745.03 129.75 L 749.35 129.17 L 753.67 128.52 L 757.98 127.81 L 762.30 127.03 L 766.62 126.21 L 770.93 125.32 L 775.25 124.38 L 779.57 123.40 L 783.88 122.36 L 788.20 121.28 L 792.52 120.16 L 796.83 119.00 L 801.15 117.80 L 805.47 116.58 L 809.78 115.32 L 814.10 114.03 L 818.42 112.73 L 822.73 111.41 L 827.05 110.07 L 831.37 108.72 L 835.68 107.36 L 840.00 106.00" fill="none" stroke="#4dabf7" stroke-width="2.5" stroke-linecap="round" stroke-linejoin="round" pathLength="100" stroke-dasharray="100 100" stroke-dashoffset="100"><animate attributeName="stroke-dashoffset" from="100" to="0" dur="7.0s" repeatCount="indefinite"/></path>
<circle r="5" fill="#4dabf7"><animateMotion dur="7.0s" repeatCount="indefinite"><mpath xlink:href="#w0" href="#w0"/></animateMotion></circle>
<line x1="322" y1="166" x2="840" y2="166" stroke="#e9ecef" stroke-width="1.5"/>
<text x="308" y="170" text-anchor="end" font-size="12" font-weight="700" fill="#9775fa">RNA</text>
<path id="w1" d="M 322.00 166.00 L 326.32 164.54 L 330.63 163.09 L 334.95 161.67 L 339.27 160.31 L 343.58 159.00 L 347.90 157.77 L 352.22 156.63 L 356.53 155.60 L 360.85 154.67 L 365.17 153.88 L 369.48 153.21 L 373.80 152.69 L 378.12 152.31 L 382.43 152.08 L 386.75 152.00 L 391.07 152.08 L 395.38 152.31 L 399.70 152.69 L 404.02 153.21 L 408.33 153.88 L 412.65 154.67 L 416.97 155.60 L 421.28 156.63 L 425.60 157.77 L 429.92 159.00 L 434.23 160.31 L 438.55 161.67 L 442.87 163.09 L 447.18 164.54 L 451.50 166.00 L 455.82 167.46 L 460.13 168.91 L 464.45 170.33 L 468.77 171.69 L 473.08 173.00 L 477.40 174.23 L 481.72 175.37 L 486.03 176.40 L 490.35 177.33 L 494.67 178.12 L 498.98 178.79 L 503.30 179.31 L 507.62 179.69 L 511.93 179.92 L 516.25 180.00 L 520.57 179.92 L 524.88 179.69 L 529.20 179.31 L 533.52 178.79 L 537.83 178.12 L 542.15 177.33 L 546.47 176.40 L 550.78 175.37 L 555.10 174.23 L 559.42 173.00 L 563.73 171.69 L 568.05 170.33 L 572.37 168.91 L 576.68 167.46 L 581.00 166.00 L 585.32 164.54 L 589.63 163.09 L 593.95 161.67 L 598.27 160.31 L 602.58 159.00 L 606.90 157.77 L 611.22 156.63 L 615.53 155.60 L 619.85 154.67 L 624.17 153.88 L 628.48 153.21 L 632.80 152.69 L 637.12 152.31 L 641.43 152.08 L 645.75 152.00 L 650.07 152.08 L 654.38 152.31 L 658.70 152.69 L 663.02 153.21 L 667.33 153.88 L 671.65 154.67 L 675.97 155.60 L 680.28 156.63 L 684.60 157.77 L 688.92 159.00 L 693.23 160.31 L 697.55 161.67 L 701.87 163.09 L 706.18 164.54 L 710.50 166.00 L 714.82 167.46 L 719.13 168.91 L 723.45 170.33 L 727.77 171.69 L 732.08 173.00 L 736.40 174.23 L 740.72 175.37 L 745.03 176.40 L 749.35 177.33 L 753.67 178.12 L 757.98 178.79 L 762.30 179.31 L 766.62 179.69 L 770.93 179.92 L 775.25 180.00 L 779.57 179.92 L 783.88 179.69 L 788.20 179.31 L 792.52 178.79 L 796.83 178.12 L 801.15 177.33 L 805.47 176.40 L 809.78 175.37 L 814.10 174.23 L 818.42 173.00 L 822.73 171.69 L 827.05 170.33 L 831.37 168.91 L 835.68 167.46 L 840.00 166.00" fill="none" stroke="#9775fa" stroke-width="2.5" stroke-linecap="round" stroke-linejoin="round" pathLength="100" stroke-dasharray="100 100" stroke-dashoffset="100"><animate attributeName="stroke-dashoffset" from="100" to="0" dur="7.0s" repeatCount="indefinite"/></path>
<circle r="5" fill="#9775fa"><animateMotion dur="7.0s" repeatCount="indefinite"><mpath xlink:href="#w1" href="#w1"/></animateMotion></circle>
<line x1="322" y1="226" x2="840" y2="226" stroke="#e9ecef" stroke-width="1.5"/>
<text x="308" y="230" text-anchor="end" font-size="12" font-weight="700" fill="#ffa94d">Metabolism</text>
<path id="w2" d="M 322.00 226.00 L 326.32 224.44 L 330.63 222.91 L 334.95 221.46 L 339.27 220.12 L 343.58 218.93 L 347.90 217.91 L 352.22 217.09 L 356.53 216.49 L 360.85 216.12 L 365.17 216.00 L 369.48 216.12 L 373.80 216.49 L 378.12 217.09 L 382.43 217.91 L 386.75 218.93 L 391.07 220.12 L 395.38 221.46 L 399.70 222.91 L 404.02 224.44 L 408.33 226.00 L 412.65 227.56 L 416.97 229.09 L 421.28 230.54 L 425.60 231.88 L 429.92 233.07 L 434.23 234.09 L 438.55 234.91 L 442.87 235.51 L 447.18 235.88 L 451.50 236.00 L 455.82 235.88 L 460.13 235.51 L 464.45 234.91 L 468.77 234.09 L 473.08 233.07 L 477.40 231.88 L 481.72 230.54 L 486.03 229.09 L 490.35 227.56 L 494.67 226.00 L 498.98 224.44 L 503.30 222.91 L 507.62 221.46 L 511.93 220.12 L 516.25 218.93 L 520.57 217.91 L 524.88 217.09 L 529.20 216.49 L 533.52 216.12 L 537.83 216.00 L 542.15 216.12 L 546.47 216.49 L 550.78 217.09 L 555.10 217.91 L 559.42 218.93 L 563.73 220.12 L 568.05 221.46 L 572.37 222.91 L 576.68 224.44 L 581.00 226.00 L 585.32 227.56 L 589.63 229.09 L 593.95 230.54 L 598.27 231.88 L 602.58 233.07 L 606.90 234.09 L 611.22 234.91 L 615.53 235.51 L 619.85 235.88 L 624.17 236.00 L 628.48 235.88 L 632.80 235.51 L 637.12 234.91 L 641.43 234.09 L 645.75 233.07 L 650.07 231.88 L 654.38 230.54 L 658.70 229.09 L 663.02 227.56 L 667.33 226.00 L 671.65 224.44 L 675.97 222.91 L 680.28 221.46 L 684.60 220.12 L 688.92 218.93 L 693.23 217.91 L 697.55 217.09 L 701.87 216.49 L 706.18 216.12 L 710.50 216.00 L 714.82 216.12 L 719.13 216.49 L 723.45 217.09 L 727.77 217.91 L 732.08 218.93 L 736.40 220.12 L 740.72 221.46 L 745.03 222.91 L 749.35 224.44 L 753.67 226.00 L 757.98 227.56 L 762.30 229.09 L 766.62 230.54 L 770.93 231.88 L 775.25 233.07 L 779.57 234.09 L 783.88 234.91 L 788.20 235.51 L 792.52 235.88 L 796.83 236.00 L 801.15 235.88 L 805.47 235.51 L 809.78 234.91 L 814.10 234.09 L 818.42 233.07 L 822.73 231.88 L 827.05 230.54 L 831.37 229.09 L 835.68 227.56 L 840.00 226.00" fill="none" stroke="#ffa94d" stroke-width="2.5" stroke-linecap="round" stroke-linejoin="round" pathLength="100" stroke-dasharray="100 100" stroke-dashoffset="100"><animate attributeName="stroke-dashoffset" from="100" to="0" dur="7.0s" repeatCount="indefinite"/></path>
<circle r="5" fill="#ffa94d"><animateMotion dur="7.0s" repeatCount="indefinite"><mpath xlink:href="#w2" href="#w2"/></animateMotion></circle>
<line x1="322" y1="286" x2="840" y2="286" stroke="#ced4da" stroke-width="1.5" stroke-dasharray="4 4"/>
<line x1="322" y1="344" x2="840" y2="344" stroke="#e9ecef" stroke-width="1.5"/>
<text x="308" y="348" text-anchor="end" font-size="13" font-weight="700" fill="#212529">phenotype</text>
<path id="wc" d="M 322.00 344.00 L 326.32 339.61 L 330.63 335.28 L 334.95 331.07 L 339.27 327.02 L 343.58 323.20 L 347.90 319.65 L 352.22 316.40 L 356.53 313.51 L 360.85 310.99 L 365.17 308.88 L 369.48 307.17 L 373.80 305.89 L 378.12 305.03 L 382.43 304.59 L 386.75 304.54 L 391.07 304.88 L 395.38 305.56 L 399.70 306.56 L 404.02 307.84 L 408.33 309.36 L 412.65 311.07 L 416.97 312.93 L 421.28 314.90 L 425.60 316.92 L 429.92 318.96 L 434.23 320.96 L 438.55 322.90 L 442.87 324.74 L 447.18 326.45 L 451.50 328.00 L 455.82 329.38 L 460.13 330.56 L 464.45 331.56 L 468.77 332.35 L 473.08 332.96 L 477.40 333.38 L 481.72 333.63 L 486.03 333.74 L 490.35 333.72 L 494.67 333.61 L 498.98 333.42 L 503.30 333.19 L 507.62 332.95 L 511.93 332.72 L 516.25 332.54 L 520.57 332.44 L 524.88 332.42 L 529.20 332.52 L 533.52 332.75 L 537.83 333.12 L 542.15 333.65 L 546.47 334.32 L 550.78 335.14 L 555.10 336.10 L 559.42 337.20 L 563.73 338.41 L 568.05 339.72 L 572.37 341.10 L 576.68 342.54 L 581.00 344.00 L 585.32 345.46 L 589.63 346.90 L 593.95 348.28 L 598.27 349.59 L 602.58 350.80 L 606.90 351.90 L 611.22 352.86 L 615.53 353.68 L 619.85 354.35 L 624.17 354.88 L 628.48 355.25 L 632.80 355.48 L 637.12 355.58 L 641.43 355.56 L 645.75 355.46 L 650.07 355.28 L 654.38 355.05 L 658.70 354.81 L 663.02 354.58 L 667.33 354.39 L 671.65 354.28 L 675.97 354.26 L 680.28 354.37 L 684.60 354.62 L 688.92 355.04 L 693.23 355.65 L 697.55 356.44 L 701.87 357.44 L 706.18 358.62 L 710.50 360.00 L 714.82 361.55 L 719.13 363.26 L 723.45 365.10 L 727.77 367.04 L 732.08 369.04 L 736.40 371.08 L 740.72 373.10 L 745.03 375.07 L 749.35 376.93 L 753.67 378.64 L 757.98 380.16 L 762.30 381.44 L 766.62 382.44 L 770.93 383.12 L 775.25 383.46 L 779.57 383.41 L 783.88 382.97 L 788.20 382.11 L 792.52 380.83 L 796.83 379.12 L 801.15 377.01 L 805.47 374.49 L 809.78 371.60 L 814.10 368.35 L 818.42 364.80 L 822.73 360.98 L 827.05 356.93 L 831.37 352.72 L 835.68 348.39 L 840.00 344.00" fill="none" stroke="#212529" stroke-width="3" stroke-linecap="round" stroke-linejoin="round" pathLength="100" stroke-dasharray="100 100" stroke-dashoffset="100"><animate attributeName="stroke-dashoffset" from="100" to="0" dur="7.0s" repeatCount="indefinite"/></path>
<line x1="211.70" y1="198.00" x2="322.00" y2="344.00" stroke="#adb5bd" stroke-width="1.3" stroke-dasharray="3 4" opacity="0.55"><animate attributeName="x1" values="211.70;211.29;210.06;208.04;205.26;201.76;197.59;192.84;187.57;181.86;175.80;169.49;163.02;156.47;149.95;143.55;137.33;131.39;125.78;120.57;115.80;111.51;107.73;104.46;101.71;99.48;97.74;96.46;95.61;95.14;95.00;95.13;95.48;95.98;96.58;97.22;97.83;98.38;98.82;99.10;99.20;99.09;98.77;98.22;97.44;96.45;95.27;93.92;92.44;90.85;89.20;87.53;85.89;84.32;82.86;81.55;80.42;79.51;78.84;78.44;78.30;78.44;78.84;79.51;80.42;81.55;82.86;84.32;85.89;87.53;89.20;90.85;92.44;93.92;95.27;96.45;97.44;98.22;98.77;99.09;99.20;99.10;98.82;98.38;97.83;97.22;96.58;95.98;95.48;95.13;95.00;95.14;95.61;96.46;97.74;99.48;101.71;104.46;107.73;111.51;115.80;120.57;125.78;131.39;137.33;143.55;149.95;156.47;163.02;169.49;175.80;181.86;187.57;192.84;197.59;201.76;205.26;208.04;210.06;211.29;211.70" dur="7.0s" repeatCount="indefinite"/><animate attributeName="y1" values="198.00;205.84;213.58;221.13;228.38;235.25;241.66;247.53;252.80;257.42;261.35;264.56;267.05;268.80;269.83;270.16;269.84;268.89;267.39;265.38;262.95;260.16;257.10;253.83;250.43;246.99;243.57;240.23;237.04;234.05;231.30;228.82;226.65;224.78;223.23;221.99;221.04;220.37;219.94;219.71;219.65;219.71;219.84;219.99;220.11;220.16;220.10;219.89;219.50;218.89;218.05;216.97;215.64;214.07;212.27;210.25;208.04;205.68;203.19;200.62;198.00;195.38;192.81;190.32;187.96;185.75;183.73;181.93;180.36;179.03;177.95;177.11;176.50;176.11;175.90;175.84;175.89;176.01;176.16;176.29;176.35;176.29;176.06;175.63;174.96;174.01;172.77;171.22;169.35;167.18;164.70;161.95;158.96;155.77;152.43;149.01;145.57;142.17;138.90;135.84;133.05;130.62;128.61;127.11;126.16;125.84;126.17;127.20;128.95;131.44;134.65;138.58;143.20;148.47;154.34;160.75;167.62;174.87;182.42;190.16;198.00" dur="7.0s" repeatCount="indefinite"/><animate attributeName="x2" values="322.00;326.32;330.63;334.95;339.27;343.58;347.90;352.22;356.53;360.85;365.17;369.48;373.80;378.12;382.43;386.75;391.07;395.38;399.70;404.02;408.33;412.65;416.97;421.28;425.60;429.92;434.23;438.55;442.87;447.18;451.50;455.82;460.13;464.45;468.77;473.08;477.40;481.72;486.03;490.35;494.67;498.98;503.30;507.62;511.93;516.25;520.57;524.88;529.20;533.52;537.83;542.15;546.47;550.78;555.10;559.42;563.73;568.05;572.37;576.68;581.00;585.32;589.63;593.95;598.27;602.58;606.90;611.22;615.53;619.85;624.17;628.48;632.80;637.12;641.43;645.75;650.07;654.38;658.70;663.02;667.33;671.65;675.97;680.28;684.60;688.92;693.23;697.55;701.87;706.18;710.50;714.82;719.13;723.45;727.77;732.08;736.40;740.72;745.03;749.35;753.67;757.98;762.30;766.62;770.93;775.25;779.57;783.88;788.20;792.52;796.83;801.15;805.47;809.78;814.10;818.42;822.73;827.05;831.37;835.68;840.00" dur="7.0s" repeatCount="indefinite"/><animate attributeName="y2" values="344.00;339.61;335.28;331.07;327.02;323.20;319.65;316.40;313.51;310.99;308.88;307.17;305.89;305.03;304.59;304.54;304.88;305.56;306.56;307.84;309.36;311.07;312.93;314.90;316.92;318.96;320.96;322.90;324.74;326.45;328.00;329.38;330.56;331.56;332.35;332.96;333.38;333.63;333.74;333.72;333.61;333.42;333.19;332.95;332.72;332.54;332.44;332.42;332.52;332.75;333.12;333.65;334.32;335.14;336.10;337.20;338.41;339.72;341.10;342.54;344.00;345.46;346.90;348.28;349.59;350.80;351.90;352.86;353.68;354.35;354.88;355.25;355.48;355.58;355.56;355.46;355.28;355.05;354.81;354.58;354.39;354.28;354.26;354.37;354.62;355.04;355.65;356.44;357.44;358.62;360.00;361.55;363.26;365.10;367.04;369.04;371.08;373.10;375.07;376.93;378.64;380.16;381.44;382.44;383.12;383.46;383.41;382.97;382.11;380.83;379.12;377.01;374.49;371.60;368.35;364.80;360.98;356.93;352.72;348.39;344.00" dur="7.0s" repeatCount="indefinite"/></line>
<circle r="5" fill="#212529" cx="322.00" cy="344.00"><animate attributeName="cx" values="322.00;326.32;330.63;334.95;339.27;343.58;347.90;352.22;356.53;360.85;365.17;369.48;373.80;378.12;382.43;386.75;391.07;395.38;399.70;404.02;408.33;412.65;416.97;421.28;425.60;429.92;434.23;438.55;442.87;447.18;451.50;455.82;460.13;464.45;468.77;473.08;477.40;481.72;486.03;490.35;494.67;498.98;503.30;507.62;511.93;516.25;520.57;524.88;529.20;533.52;537.83;542.15;546.47;550.78;555.10;559.42;563.73;568.05;572.37;576.68;581.00;585.32;589.63;593.95;598.27;602.58;606.90;611.22;615.53;619.85;624.17;628.48;632.80;637.12;641.43;645.75;650.07;654.38;658.70;663.02;667.33;671.65;675.97;680.28;684.60;688.92;693.23;697.55;701.87;706.18;710.50;714.82;719.13;723.45;727.77;732.08;736.40;740.72;745.03;749.35;753.67;757.98;762.30;766.62;770.93;775.25;779.57;783.88;788.20;792.52;796.83;801.15;805.47;809.78;814.10;818.42;822.73;827.05;831.37;835.68;840.00" dur="7.0s" repeatCount="indefinite"/><animate attributeName="cy" values="344.00;339.61;335.28;331.07;327.02;323.20;319.65;316.40;313.51;310.99;308.88;307.17;305.89;305.03;304.59;304.54;304.88;305.56;306.56;307.84;309.36;311.07;312.93;314.90;316.92;318.96;320.96;322.90;324.74;326.45;328.00;329.38;330.56;331.56;332.35;332.96;333.38;333.63;333.74;333.72;333.61;333.42;333.19;332.95;332.72;332.54;332.44;332.42;332.52;332.75;333.12;333.65;334.32;335.14;336.10;337.20;338.41;339.72;341.10;342.54;344.00;345.46;346.90;348.28;349.59;350.80;351.90;352.86;353.68;354.35;354.88;355.25;355.48;355.58;355.56;355.46;355.28;355.05;354.81;354.58;354.39;354.28;354.26;354.37;354.62;355.04;355.65;356.44;357.44;358.62;360.00;361.55;363.26;365.10;367.04;369.04;371.08;373.10;375.07;376.93;378.64;380.16;381.44;382.44;383.12;383.46;383.41;382.97;382.11;380.83;379.12;377.01;374.49;371.60;368.35;364.80;360.98;356.93;352.72;348.39;344.00" dur="7.0s" repeatCount="indefinite"/></circle>
<g><animateTransform attributeName="transform" type="translate" values="120.00,198.00;120.00,198.00;120.00,198.00;120.00,198.00;120.00,198.00;120.00,198.00;120.00,198.00;120.00,198.00;120.00,198.00;120.00,198.00;120.00,198.00;120.00,198.00;120.00,198.00;120.00,198.00;120.00,198.00;120.00,198.00;120.00,198.00;120.00,198.00;120.00,198.00;120.00,198.00;120.00,198.00;120.00,198.00;120.00,198.00;120.00,198.00;120.00,198.00;120.00,198.00;120.00,198.00;120.00,198.00;120.00,198.00;120.00,198.00;120.00,198.00;120.00,198.00;120.00,198.00;120.00,198.00;120.00,198.00;120.00,198.00;120.00,198.00;120.00,198.00;120.00,198.00;120.00,198.00;120.00,198.00;120.00,198.00;120.00,198.00;120.00,198.00;120.00,198.00;120.00,198.00;120.00,198.00;120.00,198.00;120.00,198.00;120.00,198.00;120.00,198.00;120.00,198.00;120.00,198.00;120.00,198.00;120.00,198.00;120.00,198.00;120.00,198.00;120.00,198.00;120.00,198.00;120.00,198.00;120.00,198.00;120.00,198.00;120.00,198.00;120.00,198.00;120.00,198.00;120.00,198.00;120.00,198.00;120.00,198.00;120.00,198.00;120.00,198.00;120.00,198.00;120.00,198.00;120.00,198.00;120.00,198.00;120.00,198.00;120.00,198.00;120.00,198.00;120.00,198.00;120.00,198.00;120.00,198.00;120.00,198.00;120.00,198.00;120.00,198.00;120.00,198.00;120.00,198.00;120.00,198.00;120.00,198.00;120.00,198.00;120.00,198.00;120.00,198.00;120.00,198.00;120.00,198.00;120.00,198.00;120.00,198.00;120.00,198.00;120.00,198.00;120.00,198.00;120.00,198.00;120.00,198.00;120.00,198.00;120.00,198.00;120.00,198.00;120.00,198.00;120.00,198.00;120.00,198.00;120.00,198.00;120.00,198.00;120.00,198.00;120.00,198.00;120.00,198.00;120.00,198.00;120.00,198.00;120.00,198.00;120.00,198.00;120.00,198.00;120.00,198.00;120.00,198.00;120.00,198.00;120.00,198.00;120.00,198.00;120.00,198.00" dur="7.0s" repeatCount="indefinite"/><circle cx="0" cy="0" r="50.00" fill="none" stroke="#4dabf7" stroke-width="1.5" opacity="0.5"/><line x1="0" y1="0" x2="50.00" y2="0.00" stroke="#4dabf7" stroke-width="2.5" stroke-linecap="round"><animate attributeName="x2" values="50.00;49.93;49.73;49.38;48.91;48.30;47.55;46.68;45.68;44.55;43.30;41.93;40.45;38.86;37.16;35.36;33.46;31.47;29.39;27.23;25.00;22.70;20.34;17.92;15.45;12.94;10.40;7.82;5.23;2.62;0.00;-2.62;-5.23;-7.82;-10.40;-12.94;-15.45;-17.92;-20.34;-22.70;-25.00;-27.23;-29.39;-31.47;-33.46;-35.36;-37.16;-38.86;-40.45;-41.93;-43.30;-44.55;-45.68;-46.68;-47.55;-48.30;-48.91;-49.38;-49.73;-49.93;-50.00;-49.93;-49.73;-49.38;-48.91;-48.30;-47.55;-46.68;-45.68;-44.55;-43.30;-41.93;-40.45;-38.86;-37.16;-35.36;-33.46;-31.47;-29.39;-27.23;-25.00;-22.70;-20.34;-17.92;-15.45;-12.94;-10.40;-7.82;-5.23;-2.62;-0.00;2.62;5.23;7.82;10.40;12.94;15.45;17.92;20.34;22.70;25.00;27.23;29.39;31.47;33.46;35.36;37.16;38.86;40.45;41.93;43.30;44.55;45.68;46.68;47.55;48.30;48.91;49.38;49.73;49.93;50.00" dur="7.0s" repeatCount="indefinite"/><animate attributeName="y2" values="0.00;2.62;5.23;7.82;10.40;12.94;15.45;17.92;20.34;22.70;25.00;27.23;29.39;31.47;33.46;35.36;37.16;38.86;40.45;41.93;43.30;44.55;45.68;46.68;47.55;48.30;48.91;49.38;49.73;49.93;50.00;49.93;49.73;49.38;48.91;48.30;47.55;46.68;45.68;44.55;43.30;41.93;40.45;38.86;37.16;35.36;33.46;31.47;29.39;27.23;25.00;22.70;20.34;17.92;15.45;12.94;10.40;7.82;5.23;2.62;0.00;-2.62;-5.23;-7.82;-10.40;-12.94;-15.45;-17.92;-20.34;-22.70;-25.00;-27.23;-29.39;-31.47;-33.46;-35.36;-37.16;-38.86;-40.45;-41.93;-43.30;-44.55;-45.68;-46.68;-47.55;-48.30;-48.91;-49.38;-49.73;-49.93;-50.00;-49.93;-49.73;-49.38;-48.91;-48.30;-47.55;-46.68;-45.68;-44.55;-43.30;-41.93;-40.45;-38.86;-37.16;-35.36;-33.46;-31.47;-29.39;-27.23;-25.00;-22.70;-20.34;-17.92;-15.45;-12.94;-10.40;-7.82;-5.23;-2.62;-0.00" dur="7.0s" repeatCount="indefinite"/></line><circle cx="50.00" cy="0.00" r="3.5" fill="#4dabf7"><animate attributeName="cx" values="50.00;49.93;49.73;49.38;48.91;48.30;47.55;46.68;45.68;44.55;43.30;41.93;40.45;38.86;37.16;35.36;33.46;31.47;29.39;27.23;25.00;22.70;20.34;17.92;15.45;12.94;10.40;7.82;5.23;2.62;0.00;-2.62;-5.23;-7.82;-10.40;-12.94;-15.45;-17.92;-20.34;-22.70;-25.00;-27.23;-29.39;-31.47;-33.46;-35.36;-37.16;-38.86;-40.45;-41.93;-43.30;-44.55;-45.68;-46.68;-47.55;-48.30;-48.91;-49.38;-49.73;-49.93;-50.00;-49.93;-49.73;-49.38;-48.91;-48.30;-47.55;-46.68;-45.68;-44.55;-43.30;-41.93;-40.45;-38.86;-37.16;-35.36;-33.46;-31.47;-29.39;-27.23;-25.00;-22.70;-20.34;-17.92;-15.45;-12.94;-10.40;-7.82;-5.23;-2.62;-0.00;2.62;5.23;7.82;10.40;12.94;15.45;17.92;20.34;22.70;25.00;27.23;29.39;31.47;33.46;35.36;37.16;38.86;40.45;41.93;43.30;44.55;45.68;46.68;47.55;48.30;48.91;49.38;49.73;49.93;50.00" dur="7.0s" repeatCount="indefinite"/><animate attributeName="cy" values="0.00;2.62;5.23;7.82;10.40;12.94;15.45;17.92;20.34;22.70;25.00;27.23;29.39;31.47;33.46;35.36;37.16;38.86;40.45;41.93;43.30;44.55;45.68;46.68;47.55;48.30;48.91;49.38;49.73;49.93;50.00;49.93;49.73;49.38;48.91;48.30;47.55;46.68;45.68;44.55;43.30;41.93;40.45;38.86;37.16;35.36;33.46;31.47;29.39;27.23;25.00;22.70;20.34;17.92;15.45;12.94;10.40;7.82;5.23;2.62;0.00;-2.62;-5.23;-7.82;-10.40;-12.94;-15.45;-17.92;-20.34;-22.70;-25.00;-27.23;-29.39;-31.47;-33.46;-35.36;-37.16;-38.86;-40.45;-41.93;-43.30;-44.55;-45.68;-46.68;-47.55;-48.30;-48.91;-49.38;-49.73;-49.93;-50.00;-49.93;-49.73;-49.38;-48.91;-48.30;-47.55;-46.68;-45.68;-44.55;-43.30;-41.93;-40.45;-38.86;-37.16;-35.36;-33.46;-31.47;-29.39;-27.23;-25.00;-22.70;-20.34;-17.92;-15.45;-12.94;-10.40;-7.82;-5.23;-2.62;-0.00" dur="7.0s" repeatCount="indefinite"/></circle></g>
<g><animateTransform attributeName="transform" type="translate" values="170.00,198.00;169.93,200.62;169.73,203.23;169.38,205.82;168.91,208.40;168.30,210.94;167.55,213.45;166.68,215.92;165.68,218.34;164.55,220.70;163.30,223.00;161.93,225.23;160.45,227.39;158.86,229.47;157.16,231.46;155.36,233.36;153.46,235.16;151.47,236.86;149.39,238.45;147.23,239.93;145.00,241.30;142.70,242.55;140.34,243.68;137.92,244.68;135.45,245.55;132.94,246.30;130.40,246.91;127.82,247.38;125.23,247.73;122.62,247.93;120.00,248.00;117.38,247.93;114.77,247.73;112.18,247.38;109.60,246.91;107.06,246.30;104.55,245.55;102.08,244.68;99.66,243.68;97.30,242.55;95.00,241.30;92.77,239.93;90.61,238.45;88.53,236.86;86.54,235.16;84.64,233.36;82.84,231.46;81.14,229.47;79.55,227.39;78.07,225.23;76.70,223.00;75.45,220.70;74.32,218.34;73.32,215.92;72.45,213.45;71.70,210.94;71.09,208.40;70.62,205.82;70.27,203.23;70.07,200.62;70.00,198.00;70.07,195.38;70.27,192.77;70.62,190.18;71.09,187.60;71.70,185.06;72.45,182.55;73.32,180.08;74.32,177.66;75.45,175.30;76.70,173.00;78.07,170.77;79.55,168.61;81.14,166.53;82.84,164.54;84.64,162.64;86.54,160.84;88.53,159.14;90.61,157.55;92.77,156.07;95.00,154.70;97.30,153.45;99.66,152.32;102.08,151.32;104.55,150.45;107.06,149.70;109.60,149.09;112.18,148.62;114.77,148.27;117.38,148.07;120.00,148.00;122.62,148.07;125.23,148.27;127.82,148.62;130.40,149.09;132.94,149.70;135.45,150.45;137.92,151.32;140.34,152.32;142.70,153.45;145.00,154.70;147.23,156.07;149.39,157.55;151.47,159.14;153.46,160.84;155.36,162.64;157.16,164.54;158.86,166.53;160.45,168.61;161.93,170.77;163.30,173.00;164.55,175.30;165.68,177.66;166.68,180.08;167.55,182.55;168.30,185.06;168.91,187.60;169.38,190.18;169.73,192.77;169.93,195.38;170.00,198.00" dur="7.0s" repeatCount="indefinite"/><circle cx="0" cy="0" r="25.00" fill="none" stroke="#9775fa" stroke-width="1.5" opacity="0.5"/><line x1="0" y1="0" x2="25.00" y2="0.00" stroke="#9775fa" stroke-width="2.5" stroke-linecap="round"><animate attributeName="x2" values="25.00;24.86;24.45;23.78;22.84;21.65;20.23;18.58;16.73;14.69;12.50;10.17;7.73;5.20;2.61;0.00;-2.61;-5.20;-7.73;-10.17;-12.50;-14.69;-16.73;-18.58;-20.23;-21.65;-22.84;-23.78;-24.45;-24.86;-25.00;-24.86;-24.45;-23.78;-22.84;-21.65;-20.23;-18.58;-16.73;-14.69;-12.50;-10.17;-7.73;-5.20;-2.61;-0.00;2.61;5.20;7.73;10.17;12.50;14.69;16.73;18.58;20.23;21.65;22.84;23.78;24.45;24.86;25.00;24.86;24.45;23.78;22.84;21.65;20.23;18.58;16.73;14.69;12.50;10.17;7.73;5.20;2.61;0.00;-2.61;-5.20;-7.73;-10.17;-12.50;-14.69;-16.73;-18.58;-20.23;-21.65;-22.84;-23.78;-24.45;-24.86;-25.00;-24.86;-24.45;-23.78;-22.84;-21.65;-20.23;-18.58;-16.73;-14.69;-12.50;-10.17;-7.73;-5.20;-2.61;-0.00;2.61;5.20;7.73;10.17;12.50;14.69;16.73;18.58;20.23;21.65;22.84;23.78;24.45;24.86;25.00" dur="7.0s" repeatCount="indefinite"/><animate attributeName="y2" values="0.00;2.61;5.20;7.73;10.17;12.50;14.69;16.73;18.58;20.23;21.65;22.84;23.78;24.45;24.86;25.00;24.86;24.45;23.78;22.84;21.65;20.23;18.58;16.73;14.69;12.50;10.17;7.73;5.20;2.61;0.00;-2.61;-5.20;-7.73;-10.17;-12.50;-14.69;-16.73;-18.58;-20.23;-21.65;-22.84;-23.78;-24.45;-24.86;-25.00;-24.86;-24.45;-23.78;-22.84;-21.65;-20.23;-18.58;-16.73;-14.69;-12.50;-10.17;-7.73;-5.20;-2.61;-0.00;2.61;5.20;7.73;10.17;12.50;14.69;16.73;18.58;20.23;21.65;22.84;23.78;24.45;24.86;25.00;24.86;24.45;23.78;22.84;21.65;20.23;18.58;16.73;14.69;12.50;10.17;7.73;5.20;2.61;0.00;-2.61;-5.20;-7.73;-10.17;-12.50;-14.69;-16.73;-18.58;-20.23;-21.65;-22.84;-23.78;-24.45;-24.86;-25.00;-24.86;-24.45;-23.78;-22.84;-21.65;-20.23;-18.58;-16.73;-14.69;-12.50;-10.17;-7.73;-5.20;-2.61;-0.00" dur="7.0s" repeatCount="indefinite"/></line><circle cx="25.00" cy="0.00" r="3.5" fill="#9775fa"><animate attributeName="cx" values="25.00;24.86;24.45;23.78;22.84;21.65;20.23;18.58;16.73;14.69;12.50;10.17;7.73;5.20;2.61;0.00;-2.61;-5.20;-7.73;-10.17;-12.50;-14.69;-16.73;-18.58;-20.23;-21.65;-22.84;-23.78;-24.45;-24.86;-25.00;-24.86;-24.45;-23.78;-22.84;-21.65;-20.23;-18.58;-16.73;-14.69;-12.50;-10.17;-7.73;-5.20;-2.61;-0.00;2.61;5.20;7.73;10.17;12.50;14.69;16.73;18.58;20.23;21.65;22.84;23.78;24.45;24.86;25.00;24.86;24.45;23.78;22.84;21.65;20.23;18.58;16.73;14.69;12.50;10.17;7.73;5.20;2.61;0.00;-2.61;-5.20;-7.73;-10.17;-12.50;-14.69;-16.73;-18.58;-20.23;-21.65;-22.84;-23.78;-24.45;-24.86;-25.00;-24.86;-24.45;-23.78;-22.84;-21.65;-20.23;-18.58;-16.73;-14.69;-12.50;-10.17;-7.73;-5.20;-2.61;-0.00;2.61;5.20;7.73;10.17;12.50;14.69;16.73;18.58;20.23;21.65;22.84;23.78;24.45;24.86;25.00" dur="7.0s" repeatCount="indefinite"/><animate attributeName="cy" values="0.00;2.61;5.20;7.73;10.17;12.50;14.69;16.73;18.58;20.23;21.65;22.84;23.78;24.45;24.86;25.00;24.86;24.45;23.78;22.84;21.65;20.23;18.58;16.73;14.69;12.50;10.17;7.73;5.20;2.61;0.00;-2.61;-5.20;-7.73;-10.17;-12.50;-14.69;-16.73;-18.58;-20.23;-21.65;-22.84;-23.78;-24.45;-24.86;-25.00;-24.86;-24.45;-23.78;-22.84;-21.65;-20.23;-18.58;-16.73;-14.69;-12.50;-10.17;-7.73;-5.20;-2.61;-0.00;2.61;5.20;7.73;10.17;12.50;14.69;16.73;18.58;20.23;21.65;22.84;23.78;24.45;24.86;25.00;24.86;24.45;23.78;22.84;21.65;20.23;18.58;16.73;14.69;12.50;10.17;7.73;5.20;2.61;0.00;-2.61;-5.20;-7.73;-10.17;-12.50;-14.69;-16.73;-18.58;-20.23;-21.65;-22.84;-23.78;-24.45;-24.86;-25.00;-24.86;-24.45;-23.78;-22.84;-21.65;-20.23;-18.58;-16.73;-14.69;-12.50;-10.17;-7.73;-5.20;-2.61;-0.00" dur="7.0s" repeatCount="indefinite"/></circle></g>
<g><animateTransform attributeName="transform" type="translate" values="195.00,198.00;194.79,203.23;194.18,208.42;193.16,213.55;191.75,218.56;189.95,223.44;187.78,228.15;185.26,232.65;182.41,236.92;179.24,240.92;175.80,244.65;172.10,248.07;168.18,251.17;164.06,253.92;159.77,256.32;155.36,258.36;150.84,260.02;146.27,261.31;141.66,262.23;137.06,262.77;132.50,262.95;128.00,262.78;123.61,262.26;119.34,261.41;115.23,260.25;111.29,258.80;107.56,257.08;104.05,255.11;100.77,252.92;97.75,250.54;95.00,248.00;92.52,245.32;90.32,242.53;88.40,239.66;86.77,236.74;85.41,233.80;84.32,230.86;83.50,227.95;82.93,225.10;82.61,222.32;82.50,219.65;82.60,217.09;82.89,214.67;83.34,212.40;83.93,210.29;84.64,208.36;85.46,206.59;86.34,205.01;87.27,203.61;88.23,202.39;89.20,201.35;90.14,200.47;91.05,199.76;91.90,199.19;92.67,198.76;93.35,198.44;93.93,198.23;94.39,198.10;94.73,198.03;94.93,198.00;95.00,198.00;94.93,198.00;94.73,197.97;94.39,197.90;93.93,197.77;93.35,197.56;92.67,197.24;91.90,196.81;91.05,196.24;90.14,195.53;89.20,194.65;88.23,193.61;87.27,192.39;86.34,190.99;85.46,189.41;84.64,187.64;83.93,185.71;83.34,183.60;82.89,181.33;82.60,178.91;82.50,176.35;82.61,173.68;82.93,170.90;83.50,168.05;84.32,165.14;85.41,162.20;86.77,159.26;88.40,156.34;90.32,153.47;92.52,150.68;95.00,148.00;97.75,145.46;100.77,143.08;104.05,140.89;107.56,138.92;111.29,137.20;115.23,135.75;119.34,134.59;123.61,133.74;128.00,133.22;132.50,133.05;137.06,133.23;141.66,133.77;146.27,134.69;150.84,135.98;155.36,137.64;159.77,139.68;164.06,142.08;168.18,144.83;172.10,147.93;175.80,151.35;179.24,155.08;182.41,159.08;185.26,163.35;187.78,167.85;189.95,172.56;191.75,177.44;193.16,182.45;194.18,187.58;194.79,192.77;195.00,198.00" dur="7.0s" repeatCount="indefinite"/><circle cx="0" cy="0" r="16.70" fill="none" stroke="#ffa94d" stroke-width="1.5" opacity="0.5"/><line x1="0" y1="0" x2="16.70" y2="0.00" stroke="#ffa94d" stroke-width="2.5" stroke-linecap="round"><animate attributeName="x2" values="16.70;16.49;15.88;14.88;13.51;11.81;9.82;7.58;5.16;2.61;0.00;-2.61;-5.16;-7.58;-9.82;-11.81;-13.51;-14.88;-15.88;-16.49;-16.70;-16.49;-15.88;-14.88;-13.51;-11.81;-9.82;-7.58;-5.16;-2.61;-0.00;2.61;5.16;7.58;9.82;11.81;13.51;14.88;15.88;16.49;16.70;16.49;15.88;14.88;13.51;11.81;9.82;7.58;5.16;2.61;0.00;-2.61;-5.16;-7.58;-9.82;-11.81;-13.51;-14.88;-15.88;-16.49;-16.70;-16.49;-15.88;-14.88;-13.51;-11.81;-9.82;-7.58;-5.16;-2.61;-0.00;2.61;5.16;7.58;9.82;11.81;13.51;14.88;15.88;16.49;16.70;16.49;15.88;14.88;13.51;11.81;9.82;7.58;5.16;2.61;0.00;-2.61;-5.16;-7.58;-9.82;-11.81;-13.51;-14.88;-15.88;-16.49;-16.70;-16.49;-15.88;-14.88;-13.51;-11.81;-9.82;-7.58;-5.16;-2.61;0.00;2.61;5.16;7.58;9.82;11.81;13.51;14.88;15.88;16.49;16.70" dur="7.0s" repeatCount="indefinite"/><animate attributeName="y2" values="0.00;2.61;5.16;7.58;9.82;11.81;13.51;14.88;15.88;16.49;16.70;16.49;15.88;14.88;13.51;11.81;9.82;7.58;5.16;2.61;0.00;-2.61;-5.16;-7.58;-9.82;-11.81;-13.51;-14.88;-15.88;-16.49;-16.70;-16.49;-15.88;-14.88;-13.51;-11.81;-9.82;-7.58;-5.16;-2.61;-0.00;2.61;5.16;7.58;9.82;11.81;13.51;14.88;15.88;16.49;16.70;16.49;15.88;14.88;13.51;11.81;9.82;7.58;5.16;2.61;0.00;-2.61;-5.16;-7.58;-9.82;-11.81;-13.51;-14.88;-15.88;-16.49;-16.70;-16.49;-15.88;-14.88;-13.51;-11.81;-9.82;-7.58;-5.16;-2.61;-0.00;2.61;5.16;7.58;9.82;11.81;13.51;14.88;15.88;16.49;16.70;16.49;15.88;14.88;13.51;11.81;9.82;7.58;5.16;2.61;0.00;-2.61;-5.16;-7.58;-9.82;-11.81;-13.51;-14.88;-15.88;-16.49;-16.70;-16.49;-15.88;-14.88;-13.51;-11.81;-9.82;-7.58;-5.16;-2.61;-0.00" dur="7.0s" repeatCount="indefinite"/></line><circle cx="16.70" cy="0.00" r="3.5" fill="#ffa94d"><animate attributeName="cx" values="16.70;16.49;15.88;14.88;13.51;11.81;9.82;7.58;5.16;2.61;0.00;-2.61;-5.16;-7.58;-9.82;-11.81;-13.51;-14.88;-15.88;-16.49;-16.70;-16.49;-15.88;-14.88;-13.51;-11.81;-9.82;-7.58;-5.16;-2.61;-0.00;2.61;5.16;7.58;9.82;11.81;13.51;14.88;15.88;16.49;16.70;16.49;15.88;14.88;13.51;11.81;9.82;7.58;5.16;2.61;0.00;-2.61;-5.16;-7.58;-9.82;-11.81;-13.51;-14.88;-15.88;-16.49;-16.70;-16.49;-15.88;-14.88;-13.51;-11.81;-9.82;-7.58;-5.16;-2.61;-0.00;2.61;5.16;7.58;9.82;11.81;13.51;14.88;15.88;16.49;16.70;16.49;15.88;14.88;13.51;11.81;9.82;7.58;5.16;2.61;0.00;-2.61;-5.16;-7.58;-9.82;-11.81;-13.51;-14.88;-15.88;-16.49;-16.70;-16.49;-15.88;-14.88;-13.51;-11.81;-9.82;-7.58;-5.16;-2.61;0.00;2.61;5.16;7.58;9.82;11.81;13.51;14.88;15.88;16.49;16.70" dur="7.0s" repeatCount="indefinite"/><animate attributeName="cy" values="0.00;2.61;5.16;7.58;9.82;11.81;13.51;14.88;15.88;16.49;16.70;16.49;15.88;14.88;13.51;11.81;9.82;7.58;5.16;2.61;0.00;-2.61;-5.16;-7.58;-9.82;-11.81;-13.51;-14.88;-15.88;-16.49;-16.70;-16.49;-15.88;-14.88;-13.51;-11.81;-9.82;-7.58;-5.16;-2.61;-0.00;2.61;5.16;7.58;9.82;11.81;13.51;14.88;15.88;16.49;16.70;16.49;15.88;14.88;13.51;11.81;9.82;7.58;5.16;2.61;0.00;-2.61;-5.16;-7.58;-9.82;-11.81;-13.51;-14.88;-15.88;-16.49;-16.70;-16.49;-15.88;-14.88;-13.51;-11.81;-9.82;-7.58;-5.16;-2.61;-0.00;2.61;5.16;7.58;9.82;11.81;13.51;14.88;15.88;16.49;16.70;16.49;15.88;14.88;13.51;11.81;9.82;7.58;5.16;2.61;0.00;-2.61;-5.16;-7.58;-9.82;-11.81;-13.51;-14.88;-15.88;-16.49;-16.70;-16.49;-15.88;-14.88;-13.51;-11.81;-9.82;-7.58;-5.16;-2.61;-0.00" dur="7.0s" repeatCount="indefinite"/></circle></g>
</svg>
