<svg xmlns="http://www.w3.org/2000/svg" xmlns:xlink="http://www.w3.org/1999/xlink" viewBox="0 0 880 384" font-family="-apple-system, BlinkMacSystemFont, 'Segoe UI', Roboto, Helvetica, Arial, sans-serif" role="img" aria-label="Animation: three chained Fourier epicycles, each tracing its own DNA/RNA/Metabolism sine wave; together they sum to a composite wave labelled phenotype.">
<rect x="6" y="6" width="868" height="372" rx="18" fill="#f8fafc" stroke="#e2e8f0" stroke-width="1.5"/>
<line x1="322" y1="62" x2="840" y2="62" stroke="#e9ecef" stroke-width="1.5"/>
<text x="308" y="66" text-anchor="end" font-size="12" font-weight="700" fill="#4dabf7">DNA</text>
<path id="w0" d="M 322.00 62.00 L 326.32 60.64 L 330.63 59.28 L 334.95 57.93 L 339.27 56.59 L 343.58 55.27 L 347.90 53.97 L 352.22 52.68 L 356.53 51.42 L 360.85 50.20 L 365.17 49.00 L 369.48 47.84 L 373.80 46.72 L 378.12 45.64 L 382.43 44.60 L 386.75 43.62 L 391.07 42.68 L 395.38 41.79 L 399.70 40.97 L 404.02 40.19 L 408.33 39.48 L 412.65 38.83 L 416.97 38.25 L 421.28 37.73 L 425.60 37.27 L 429.92 36.89 L 434.23 36.57 L 438.55 36.32 L 442.87 36.14 L 447.18 36.04 L 451.50 36.00 L 455.82 36.04 L 460.13 36.14 L 464.45 36.32 L 468.77 36.57 L 473.08 36.89 L 477.40 37.27 L 481.72 37.73 L 486.03 38.25 L 490.35 38.83 L 494.67 39.48 L 498.98 40.19 L 503.30 40.97 L 507.62 41.79 L 511.93 42.68 L 516.25 43.62 L 520.57 44.60 L 524.88 45.64 L 529.20 46.72 L 533.52 47.84 L 537.83 49.00 L 542.15 50.20 L 546.47 51.42 L 550.78 52.68 L 555.10 53.97 L 559.42 55.27 L 563.73 56.59 L 568.05 57.93 L 572.37 59.28 L 576.68 60.64 L 581.00 62.00 L 585.32 63.36 L 589.63 64.72 L 593.95 66.07 L 598.27 67.41 L 602.58 68.73 L 606.90 70.03 L 611.22 71.32 L 615.53 72.58 L 619.85 73.80 L 624.17 75.00 L 628.48 76.16 L 632.80 77.28 L 637.12 78.36 L 641.43 79.40 L 645.75 80.38 L 650.07 81.32 L 654.38 82.21 L 658.70 83.03 L 663.02 83.81 L 667.33 84.52 L 671.65 85.17 L 675.97 85.75 L 680.28 86.27 L 684.60 86.73 L 688.92 87.11 L 693.23 87.43 L 697.55 87.68 L 701.87 87.86 L 706.18 87.96 L 710.50 88.00 L 714.82 87.96 L 719.13 87.86 L 723.45 87.68 L 727.77 87.43 L 732.08 87.11 L 736.40 86.73 L 740.72 86.27 L 745.03 85.75 L 749.35 85.17 L 753.67 84.52 L 757.98 83.81 L 762.30 83.03 L 766.62 82.21 L 770.93 81.32 L 775.25 80.38 L 779.57 79.40 L 783.88 78.36 L 788.20 77.28 L 792.52 76.16 L 796.83 75.00 L 801.15 73.80 L 805.47 72.58 L 809.78 71.32 L 814.10 70.03 L 818.42 68.73 L 822.73 67.41 L 827.05 66.07 L 831.37 64.72 L 835.68 63.36 L 840.00 62.00" fill="none" stroke="#4dabf7" stroke-width="2.5" stroke-linecap="round" stroke-linejoin="round" pathLength="100" stroke-dasharray="100 100" stroke-dashoffset="100"><animate attributeName="stroke-dashoffset" from="100" to="0" dur="7.0s" repeatCount="indefinite"/></path>
<circle r="5" fill="#4dabf7"><animateMotion dur="7.0s" repeatCount="indefinite"><mpath xlink:href="#w0" href="#w0"/></animateMotion></circle>
<line x1="322" y1="122" x2="840" y2="122" stroke="#e9ecef" stroke-width="1.5"/>
<text x="308" y="126" text-anchor="end" font-size="12" font-weight="700" fill="#9775fa">RNA</text>
<path id="w1" d="M 322.00 122.00 L 326.32 120.54 L 330.63 119.09 L 334.95 117.67 L 339.27 116.31 L 343.58 115.00 L 347.90 113.77 L 352.22 112.63 L 356.53 111.60 L 360.85 110.67 L 365.17 109.88 L 369.48 109.21 L 373.80 108.69 L 378.12 108.31 L 382.43 108.08 L 386.75 108.00 L 391.07 108.08 L 395.38 108.31 L 399.70 108.69 L 404.02 109.21 L 408.33 109.88 L 412.65 110.67 L 416.97 111.60 L 421.28 112.63 L 425.60 113.77 L 429.92 115.00 L 434.23 116.31 L 438.55 117.67 L 442.87 119.09 L 447.18 120.54 L 451.50 122.00 L 455.82 123.46 L 460.13 124.91 L 464.45 126.33 L 468.77 127.69 L 473.08 129.00 L 477.40 130.23 L 481.72 131.37 L 486.03 132.40 L 490.35 133.33 L 494.67 134.12 L 498.98 134.79 L 503.30 135.31 L 507.62 135.69 L 511.93 135.92 L 516.25 136.00 L 520.57 135.92 L 524.88 135.69 L 529.20 135.31 L 533.52 134.79 L 537.83 134.12 L 542.15 133.33 L 546.47 132.40 L 550.78 131.37 L 555.10 130.23 L 559.42 129.00 L 563.73 127.69 L 568.05 126.33 L 572.37 124.91 L 576.68 123.46 L 581.00 122.00 L 585.32 120.54 L 589.63 119.09 L 593.95 117.67 L 598.27 116.31 L 602.58 115.00 L 606.90 113.77 L 611.22 112.63 L 615.53 111.60 L 619.85 110.67 L 624.17 109.88 L 628.48 109.21 L 632.80 108.69 L 637.12 108.31 L 641.43 108.08 L 645.75 108.00 L 650.07 108.08 L 654.38 108.31 L 658.70 108.69 L 663.02 109.21 L 667.33 109.88 L 671.65 110.67 L 675.97 111.60 L 680.28 112.63 L 684.60 113.77 L 688.92 115.00 L 693.23 116.31 L 697.55 117.67 L 701.87 119.09 L 706.18 120.54 L 710.50 122.00 L 714.82 123.46 L 719.13 124.91 L 723.45 126.33 L 727.77 127.69 L 732.08 129.00 L 736.40 130.23 L 740.72 131.37 L 745.03 132.40 L 749.35 133.33 L 753.67 134.12 L 757.98 134.79 L 762.30 135.31 L 766.62 135.69 L 770.93 135.92 L 775.25 136.00 L 779.57 135.92 L 783.88 135.69 L 788.20 135.31 L 792.52 134.79 L 796.83 134.12 L 801.15 133.33 L 805.47 132.40 L 809.78 131.37 L 814.10 130.23 L 818.42 129.00 L 822.73 127.69 L 827.05 126.33 L 831.37 124.91 L 835.68 123.46 L 840.00 122.00" fill="none" stroke="#9775fa" stroke-width="2.5" stroke-linecap="round" stroke-linejoin="round" pathLength="100" stroke-dasharray="100 100" stroke-dashoffset="100"><animate attributeName="stroke-dashoffset" from="100" to="0" dur="7.0s" repeatCount="indefinite"/></path>
<circle r="5" fill="#9775fa"><animateMotion dur="7.0s" repeatCount="indefinite"><mpath xlink:href="#w1" href="#w1"/></animateMotion></circle>
<line x1="322" y1="182" x2="840" y2="182" stroke="#e9ecef" stroke-width="1.5"/>
<text x="308" y="186" text-anchor="end" font-size="12" font-weight="700" fill="#ffa94d">Metabolism</text>
<path id="w2" d="M 322.00 182.00 L 326.32 180.44 L 330.63 178.91 L 334.95 177.46 L 339.27 176.12 L 343.58 174.93 L 347.90 173.91 L 352.22 173.09 L 356.53 172.49 L 360.85 172.12 L 365.17 172.00 L 369.48 172.12 L 373.80 172.49 L 378.12 173.09 L 382.43 173.91 L 386.75 174.93 L 391.07 176.12 L 395.38 177.46 L 399.70 178.91 L 404.02 180.44 L 408.33 182.00 L 412.65 183.56 L 416.97 185.09 L 421.28 186.54 L 425.60 187.88 L 429.92 189.07 L 434.23 190.09 L 438.55 190.91 L 442.87 191.51 L 447.18 191.88 L 451.50 192.00 L 455.82 191.88 L 460.13 191.51 L 464.45 190.91 L 468.77 190.09 L 473.08 189.07 L 477.40 187.88 L 481.72 186.54 L 486.03 185.09 L 490.35 183.56 L 494.67 182.00 L 498.98 180.44 L 503.30 178.91 L 507.62 177.46 L 511.93 176.12 L 516.25 174.93 L 520.57 173.91 L 524.88 173.09 L 529.20 172.49 L 533.52 172.12 L 537.83 172.00 L 542.15 172.12 L 546.47 172.49 L 550.78 173.09 L 555.10 173.91 L 559.42 174.93 L 563.73 176.12 L 568.05 177.46 L 572.37 178.91 L 576.68 180.44 L 581.00 182.00 L 585.32 183.56 L 589.63 185.09 L 593.95 186.54 L 598.27 187.88 L 602.58 189.07 L 606.90 190.09 L 611.22 190.91 L 615.53 191.51 L 619.85 191.88 L 624.17 192.00 L 628.48 191.88 L 632.80 191.51 L 637.12 190.91 L 641.43 190.09 L 645.75 189.07 L 650.07 187.88 L 654.38 186.54 L 658.70 185.09 L 663.02 183.56 L 667.33 182.00 L 671.65 180.44 L 675.97 178.91 L 680.28 177.46 L 684.60 176.12 L 688.92 174.93 L 693.23 173.91 L 697.55 173.09 L 701.87 172.49 L 706.18 172.12 L 710.50 172.00 L 714.82 172.12 L 719.13 172.49 L 723.45 173.09 L 727.77 173.91 L 732.08 174.93 L 736.40 176.12 L 740.72 177.46 L 745.03 178.91 L 749.35 180.44 L 753.67 182.00 L 757.98 183.56 L 762.30 185.09 L 766.62 186.54 L 770.93 187.88 L 775.25 189.07 L 779.57 190.09 L 783.88 190.91 L 788.20 191.51 L 792.52 191.88 L 796.83 192.00 L 801.15 191.88 L 805.47 191.51 L 809.78 190.91 L 814.10 190.09 L 818.42 189.07 L 822.73 187.88 L 827.05 186.54 L 831.37 185.09 L 835.68 183.56 L 840.00 182.00" fill="none" stroke="#ffa94d" stroke-width="2.5" stroke-linecap="round" stroke-linejoin="round" pathLength="100" stroke-dasharray="100 100" stroke-dashoffset="100"><animate attributeName="stroke-dashoffset" from="100" to="0" dur="7.0s" repeatCount="indefinite"/></path>
<circle r="5" fill="#ffa94d"><animateMotion dur="7.0s" repeatCount="indefinite"><mpath xlink:href="#w2" href="#w2"/></animateMotion></circle>
<line x1="322" y1="242" x2="840" y2="242" stroke="#ced4da" stroke-width="1.5" stroke-dasharray="4 4"/>
<line x1="322" y1="300" x2="840" y2="300" stroke="#e9ecef" stroke-width="1.5"/>
<text x="308" y="304" text-anchor="end" font-size="13" font-weight="700" fill="#212529">phenotype</text>
<path id="wc" d="M 322.00 300.00 L 326.32 295.61 L 330.63 291.28 L 334.95 287.07 L 339.27 283.02 L 343.58 279.20 L 347.90 275.65 L 352.22 272.40 L 356.53 269.51 L 360.85 266.99 L 365.17 264.88 L 369.48 263.17 L 373.80 261.89 L 378.12 261.03 L 382.43 260.59 L 386.75 260.54 L 391.07 260.88 L 395.38 261.56 L 399.70 262.56 L 404.02 263.84 L 408.33 265.36 L 412.65 267.07 L 416.97 268.93 L 421.28 270.90 L 425.60 272.92 L 429.92 274.96 L 434.23 276.96 L 438.55 278.90 L 442.87 280.74 L 447.18 282.45 L 451.50 284.00 L 455.82 285.38 L 460.13 286.56 L 464.45 287.56 L 468.77 288.35 L 473.08 288.96 L 477.40 289.38 L 481.72 289.63 L 486.03 289.74 L 490.35 289.72 L 494.67 289.61 L 498.98 289.42 L 503.30 289.19 L 507.62 288.95 L 511.93 288.72 L 516.25 288.54 L 520.57 288.44 L 524.88 288.42 L 529.20 288.52 L 533.52 288.75 L 537.83 289.12 L 542.15 289.65 L 546.47 290.32 L 550.78 291.14 L 555.10 292.10 L 559.42 293.20 L 563.73 294.41 L 568.05 295.72 L 572.37 297.10 L 576.68 298.54 L 581.00 300.00 L 585.32 301.46 L 589.63 302.90 L 593.95 304.28 L 598.27 305.59 L 602.58 306.80 L 606.90 307.90 L 611.22 308.86 L 615.53 309.68 L 619.85 310.35 L 624.17 310.88 L 628.48 311.25 L 632.80 311.48 L 637.12 311.58 L 641.43 311.56 L 645.75 311.46 L 650.07 311.28 L 654.38 311.05 L 658.70 310.81 L 663.02 310.58 L 667.33 310.39 L 671.65 310.28 L 675.97 310.26 L 680.28 310.37 L 684.60 310.62 L 688.92 311.04 L 693.23 311.65 L 697.55 312.44 L 701.87 313.44 L 706.18 314.62 L 710.50 316.00 L 714.82 317.55 L 719.13 319.26 L 723.45 321.10 L 727.77 323.04 L 732.08 325.04 L 736.40 327.08 L 740.72 329.10 L 745.03 331.07 L 749.35 332.93 L 753.67 334.64 L 757.98 336.16 L 762.30 337.44 L 766.62 338.44 L 770.93 339.12 L 775.25 339.46 L 779.57 339.41 L 783.88 338.97 L 788.20 338.11 L 792.52 336.83 L 796.83 335.12 L 801.15 333.01 L 805.47 330.49 L 809.78 327.60 L 814.10 324.35 L 818.42 320.80 L 822.73 316.98 L 827.05 312.93 L 831.37 308.72 L 835.68 304.39 L 840.00 300.00" fill="none" stroke="#212529" stroke-width="3" stroke-linecap="round" stroke-linejoin="round" pathLength="100" stroke-dasharray="100 100" stroke-dashoffset="100"><animate attributeName="stroke-dashoffset" from="100" to="0" dur="7.0s" repeatCount="indefinite"/></path>
<line x1="211.70" y1="154.00" x2="322.00" y2="300.00" stroke="#adb5bd" stroke-width="1.3" stroke-dasharray="3 4" opacity="0.55"><animate attributeName="x1" values="211.70;211.29;210.06;208.04;205.26;201.76;197.59;192.84;187.57;181.86;175.80;169.49;163.02;156.47;149.95;143.55;137.33;131.39;125.78;120.57;115.80;111.51;107.73;104.46;101.71;99.48;97.74;96.46;95.61;95.14;95.00;95.13;95.48;95.98;96.58;97.22;97.83;98.38;98.82;99.10;99.20;99.09;98.77;98.22;97.44;96.45;95.27;93.92;92.44;90.85;89.20;87.53;85.89;84.32;82.86;81.55;80.42;79.51;78.84;78.44;78.30;78.44;78.84;79.51;80.42;81.55;82.86;84.32;85.89;87.53;89.20;90.85;92.44;93.92;95.27;96.45;97.44;98.22;98.77;99.09;99.20;99.10;98.82;98.38;97.83;97.22;96.58;95.98;95.48;95.13;95.00;95.14;95.61;96.46;97.74;99.48;101.71;104.46;107.73;111.51;115.80;120.57;125.78;131.39;137.33;143.55;149.95;156.47;163.02;169.49;175.80;181.86;187.57;192.84;197.59;201.76;205.26;208.04;210.06;211.29;211.70" dur="7.0s" repeatCount="indefinite"/><animate attributeName="y1" values="154.00;161.84;169.58;177.13;184.38;191.25;197.66;203.53;208.80;213.42;217.35;220.56;223.05;224.80;225.83;226.16;225.84;224.89;223.39;221.38;218.95;216.16;213.10;209.83;206.43;202.99;199.57;196.23;193.04;190.05;187.30;184.82;182.65;180.78;179.23;177.99;177.04;176.37;175.94;175.71;175.65;175.71;175.84;175.99;176.11;176.16;176.10;175.89;175.50;174.89;174.05;172.97;171.64;170.07;168.27;166.25;164.04;161.68;159.19;156.62;154.00;151.38;148.81;146.32;143.96;141.75;139.73;137.93;136.36;135.03;133.95;133.11;132.50;132.11;131.90;131.84;131.89;132.01;132.16;132.29;132.35;132.29;132.06;131.63;130.96;130.01;128.77;127.22;125.35;123.18;120.70;117.95;114.96;111.77;108.43;105.01;101.57;98.17;94.90;91.84;89.05;86.62;84.61;83.11;82.16;81.84;82.17;83.20;84.95;87.44;90.65;94.58;99.20;104.47;110.34;116.75;123.62;130.87;138.42;146.16;154.00" dur="7.0s" repeatCount="indefinite"/><animate attributeName="x2" values="322.00;326.32;330.63;334.95;339.27;343.58;347.90;352.22;356.53;360.85;365.17;369.48;373.80;378.12;382.43;386.75;391.07;395.38;399.70;404.02;408.33;412.65;416.97;421.28;425.60;429.92;434.23;438.55;442.87;447.18;451.50;455.82;460.13;464.45;468.77;473.08;477.40;481.72;486.03;490.35;494.67;498.98;503.30;507.62;511.93;516.25;520.57;524.88;529.20;533.52;537.83;542.15;546.47;550.78;555.10;559.42;563.73;568.05;572.37;576.68;581.00;585.32;589.63;593.95;598.27;602.58;606.90;611.22;615.53;619.85;624.17;628.48;632.80;637.12;641.43;645.75;650.07;654.38;658.70;663.02;667.33;671.65;675.97;680.28;684.60;688.92;693.23;697.55;701.87;706.18;710.50;714.82;719.13;723.45;727.77;732.08;736.40;740.72;745.03;749.35;753.67;757.98;762.30;766.62;770.93;775.25;779.57;783.88;788.20;792.52;796.83;801.15;805.47;809.78;814.10;818.42;822.73;827.05;831.37;835.68;840.00" dur="7.0s" repeatCount="indefinite"/><animate attributeName="y2" values="300.00;295.61;291.28;287.07;283.02;279.20;275.65;272.40;269.51;266.99;264.88;263.17;261.89;261.03;260.59;260.54;260.88;261.56;262.56;263.84;265.36;267.07;268.93;270.90;272.92;274.96;276.96;278.90;280.74;282.45;284.00;285.38;286.56;287.56;288.35;288.96;289.38;289.63;289.74;289.72;289.61;289.42;289.19;288.95;288.72;288.54;288.44;288.42;288.52;288.75;289.12;289.65;290.32;291.14;292.10;293.20;294.41;295.72;297.10;298.54;300.00;301.46;302.90;304.28;305.59;306.80;307.90;308.86;309.68;310.35;310.88;311.25;311.48;311.58;311.56;311.46;311.28;311.05;310.81;310.58;310.39;310.28;310.26;310.37;310.62;311.04;311.65;312.44;313.44;314.62;316.00;317.55;319.26;321.10;323.04;325.04;327.08;329.10;331.07;332.93;334.64;336.16;337.44;338.44;339.12;339.46;339.41;338.97;338.11;336.83;335.12;333.01;330.49;327.60;324.35;320.80;316.98;312.93;308.72;304.39;300.00" dur="7.0s" repeatCount="indefinite"/></line>
<circle r="5" fill="#212529" cx="322.00" cy="300.00"><animate attributeName="cx" values="322.00;326.32;330.63;334.95;339.27;343.58;347.90;352.22;356.53;360.85;365.17;369.48;373.80;378.12;382.43;386.75;391.07;395.38;399.70;404.02;408.33;412.65;416.97;421.28;425.60;429.92;434.23;438.55;442.87;447.18;451.50;455.82;460.13;464.45;468.77;473.08;477.40;481.72;486.03;490.35;494.67;498.98;503.30;507.62;511.93;516.25;520.57;524.88;529.20;533.52;537.83;542.15;546.47;550.78;555.10;559.42;563.73;568.05;572.37;576.68;581.00;585.32;589.63;593.95;598.27;602.58;606.90;611.22;615.53;619.85;624.17;628.48;632.80;637.12;641.43;645.75;650.07;654.38;658.70;663.02;667.33;671.65;675.97;680.28;684.60;688.92;693.23;697.55;701.87;706.18;710.50;714.82;719.13;723.45;727.77;732.08;736.40;740.72;745.03;749.35;753.67;757.98;762.30;766.62;770.93;775.25;779.57;783.88;788.20;792.52;796.83;801.15;805.47;809.78;814.10;818.42;822.73;827.05;831.37;835.68;840.00" dur="7.0s" repeatCount="indefinite"/><animate attributeName="cy" values="300.00;295.61;291.28;287.07;283.02;279.20;275.65;272.40;269.51;266.99;264.88;263.17;261.89;261.03;260.59;260.54;260.88;261.56;262.56;263.84;265.36;267.07;268.93;270.90;272.92;274.96;276.96;278.90;280.74;282.45;284.00;285.38;286.56;287.56;288.35;288.96;289.38;289.63;289.74;289.72;289.61;289.42;289.19;288.95;288.72;288.54;288.44;288.42;288.52;288.75;289.12;289.65;290.32;291.14;292.10;293.20;294.41;295.72;297.10;298.54;300.00;301.46;302.90;304.28;305.59;306.80;307.90;308.86;309.68;310.35;310.88;311.25;311.48;311.58;311.56;311.46;311.28;311.05;310.81;310.58;310.39;310.28;310.26;310.37;310.62;311.04;311.65;312.44;313.44;314.62;316.00;317.55;319.26;321.10;323.04;325.04;327.08;329.10;331.07;332.93;334.64;336.16;337.44;338.44;339.12;339.46;339.41;338.97;338.11;336.83;335.12;333.01;330.49;327.60;324.35;320.80;316.98;312.93;308.72;304.39;300.00" dur="7.0s" repeatCount="indefinite"/></circle>
<g><animateTransform attributeName="transform" type="translate" values="120.00,154.00;120.00,154.00;120.00,154.00;120.00,154.00;120.00,154.00;120.00,154.00;120.00,154.00;120.00,154.00;120.00,154.00;120.00,154.00;120.00,154.00;120.00,154.00;120.00,154.00;120.00,154.00;120.00,154.00;120.00,154.00;120.00,154.00;120.00,154.00;120.00,154.00;120.00,154.00;120.00,154.00;120.00,154.00;120.00,154.00;120.00,154.00;120.00,154.00;120.00,154.00;120.00,154.00;120.00,154.00;120.00,154.00;120.00,154.00;120.00,154.00;120.00,154.00;120.00,154.00;120.00,154.00;120.00,154.00;120.00,154.00;120.00,154.00;120.00,154.00;120.00,154.00;120.00,154.00;120.00,154.00;120.00,154.00;120.00,154.00;120.00,154.00;120.00,154.00;120.00,154.00;120.00,154.00;120.00,154.00;120.00,154.00;120.00,154.00;120.00,154.00;120.00,154.00;120.00,154.00;120.00,154.00;120.00,154.00;120.00,154.00;120.00,154.00;120.00,154.00;120.00,154.00;120.00,154.00;120.00,154.00;120.00,154.00;120.00,154.00;120.00,154.00;120.00,154.00;120.00,154.00;120.00,154.00;120.00,154.00;120.00,154.00;120.00,154.00;120.00,154.00;120.00,154.00;120.00,154.00;120.00,154.00;120.00,154.00;120.00,154.00;120.00,154.00;120.00,154.00;120.00,154.00;120.00,154.00;120.00,154.00;120.00,154.00;120.00,154.00;120.00,154.00;120.00,154.00;120.00,154.00;120.00,154.00;120.00,154.00;120.00,154.00;120.00,154.00;120.00,154.00;120.00,154.00;120.00,154.00;120.00,154.00;120.00,154.00;120.00,154.00;120.00,154.00;120.00,154.00;120.00,154.00;120.00,154.00;120.00,154.00;120.00,154.00;120.00,154.00;120.00,154.00;120.00,154.00;120.00,154.00;120.00,154.00;120.00,154.00;120.00,154.00;120.00,154.00;120.00,154.00;120.00,154.00;120.00,154.00;120.00,154.00;120.00,154.00;120.00,154.00;120.00,154.00;120.00,154.00;120.00,154.00;120.00,154.00;120.00,154.00" dur="7.0s" repeatCount="indefinite"/><circle cx="0" cy="0" r="50.00" fill="none" stroke="#4dabf7" stroke-width="1.5" opacity="0.5"/><line x1="0" y1="0" x2="50.00" y2="0.00" stroke="#4dabf7" stroke-width="2.5" stroke-linecap="round"><animate attributeName="x2" values="50.00;49.93;49.73;49.38;48.91;48.30;47.55;46.68;45.68;44.55;43.30;41.93;40.45;38.86;37.16;35.36;33.46;31.47;29.39;27.23;25.00;22.70;20.34;17.92;15.45;12.94;10.40;7.82;5.23;2.62;0.00;-2.62;-5.23;-7.82;-10.40;-12.94;-15.45;-17.92;-20.34;-22.70;-25.00;-27.23;-29.39;-31.47;-33.46;-35.36;-37.16;-38.86;-40.45;-41.93;-43.30;-44.55;-45.68;-46.68;-47.55;-48.30;-48.91;-49.38;-49.73;-49.93;-50.00;-49.93;-49.73;-49.38;-48.91;-48.30;-47.55;-46.68;-45.68;-44.55;-43.30;-41.93;-40.45;-38.86;-37.16;-35.36;-33.46;-31.47;-29.39;-27.23;-25.00;-22.70;-20.34;-17.92;-15.45;-12.94;-10.40;-7.82;-5.23;-2.62;-0.00;2.62;5.23;7.82;10.40;12.94;15.45;17.92;20.34;22.70;25.00;27.23;29.39;31.47;33.46;35.36;37.16;38.86;40.45;41.93;43.30;44.55;45.68;46.68;47.55;48.30;48.91;49.38;49.73;49.93;50.00" dur="7.0s" repeatCount="indefinite"/><animate attributeName="y2" values="0.00;2.62;5.23;7.82;10.40;12.94;15.45;17.92;20.34;22.70;25.00;27.23;29.39;31.47;33.46;35.36;37.16;38.86;40.45;41.93;43.30;44.55;45.68;46.68;47.55;48.30;48.91;49.38;49.73;49.93;50.00;49.93;49.73;49.38;48.91;48.30;47.55;46.68;45.68;44.55;43.30;41.93;40.45;38.86;37.16;35.36;33.46;31.47;29.39;27.23;25.00;22.70;20.34;17.92;15.45;12.94;10.40;7.82;5.23;2.62;0.00;-2.62;-5.23;-7.82;-10.40;-12.94;-15.45;-17.92;-20.34;-22.70;-25.00;-27.23;-29.39;-31.47;-33.46;-35.36;-37.16;-38.86;-40.45;-41.93;-43.30;-44.55;-45.68;-46.68;-47.55;-48.30;-48.91;-49.38;-49.73;-49.93;-50.00;-49.93;-49.73;-49.38;-48.91;-48.30;-47.55;-46.68;-45.68;-44.55;-43.30;-41.93;-40.45;-38.86;-37.16;-35.36;-33.46;-31.47;-29.39;-27.23;-25.00;-22.70;-20.34;-17.92;-15.45;-12.94;-10.40;-7.82;-5.23;-2.62;-0.00" dur="7.0s" repeatCount="indefinite"/></line><circle cx="50.00" cy="0.00" r="3.5" fill="#4dabf7"><animate attributeName="cx" values="50.00;49.93;49.73;49.38;48.91;48.30;47.55;46.68;45.68;44.55;43.30;41.93;40.45;38.86;37.16;35.36;33.46;31.47;29.39;27.23;25.00;22.70;20.34;17.92;15.45;12.94;10.40;7.82;5.23;2.62;0.00;-2.62;-5.23;-7.82;-10.40;-12.94;-15.45;-17.92;-20.34;-22.70;-25.00;-27.23;-29.39;-31.47;-33.46;-35.36;-37.16;-38.86;-40.45;-41.93;-43.30;-44.55;-45.68;-46.68;-47.55;-48.30;-48.91;-49.38;-49.73;-49.93;-50.00;-49.93;-49.73;-49.38;-48.91;-48.30;-47.55;-46.68;-45.68;-44.55;-43.30;-41.93;-40.45;-38.86;-37.16;-35.36;-33.46;-31.47;-29.39;-27.23;-25.00;-22.70;-20.34;-17.92;-15.45;-12.94;-10.40;-7.82;-5.23;-2.62;-0.00;2.62;5.23;7.82;10.40;12.94;15.45;17.92;20.34;22.70;25.00;27.23;29.39;31.47;33.46;35.36;37.16;38.86;40.45;41.93;43.30;44.55;45.68;46.68;47.55;48.30;48.91;49.38;49.73;49.93;50.00" dur="7.0s" repeatCount="indefinite"/><animate attributeName="cy" values="0.00;2.62;5.23;7.82;10.40;12.94;15.45;17.92;20.34;22.70;25.00;27.23;29.39;31.47;33.46;35.36;37.16;38.86;40.45;41.93;43.30;44.55;45.68;46.68;47.55;48.30;48.91;49.38;49.73;49.93;50.00;49.93;49.73;49.38;48.91;48.30;47.55;46.68;45.68;44.55;43.30;41.93;40.45;38.86;37.16;35.36;33.46;31.47;29.39;27.23;25.00;22.70;20.34;17.92;15.45;12.94;10.40;7.82;5.23;2.62;0.00;-2.62;-5.23;-7.82;-10.40;-12.94;-15.45;-17.92;-20.34;-22.70;-25.00;-27.23;-29.39;-31.47;-33.46;-35.36;-37.16;-38.86;-40.45;-41.93;-43.30;-44.55;-45.68;-46.68;-47.55;-48.30;-48.91;-49.38;-49.73;-49.93;-50.00;-49.93;-49.73;-49.38;-48.91;-48.30;-47.55;-46.68;-45.68;-44.55;-43.30;-41.93;-40.45;-38.86;-37.16;-35.36;-33.46;-31.47;-29.39;-27.23;-25.00;-22.70;-20.34;-17.92;-15.45;-12.94;-10.40;-7.82;-5.23;-2.62;-0.00" dur="7.0s" repeatCount="indefinite"/></circle></g>
<g><animateTransform attributeName="transform" type="translate" values="170.00,154.00;169.93,156.62;169.73,159.23;169.38,161.82;168.91,164.40;168.30,166.94;167.55,169.45;166.68,171.92;165.68,174.34;164.55,176.70;163.30,179.00;161.93,181.23;160.45,183.39;158.86,185.47;157.16,187.46;155.36,189.36;153.46,191.16;151.47,192.86;149.39,194.45;147.23,195.93;145.00,197.30;142.70,198.55;140.34,199.68;137.92,200.68;135.45,201.55;132.94,202.30;130.40,202.91;127.82,203.38;125.23,203.73;122.62,203.93;120.00,204.00;117.38,203.93;114.77,203.73;112.18,203.38;109.60,202.91;107.06,202.30;104.55,201.55;102.08,200.68;99.66,199.68;97.30,198.55;95.00,197.30;92.77,195.93;90.61,194.45;88.53,192.86;86.54,191.16;84.64,189.36;82.84,187.46;81.14,185.47;79.55,183.39;78.07,181.23;76.70,179.00;75.45,176.70;74.32,174.34;73.32,171.92;72.45,169.45;71.70,166.94;71.09,164.40;70.62,161.82;70.27,159.23;70.07,156.62;70.00,154.00;70.07,151.38;70.27,148.77;70.62,146.18;71.09,143.60;71.70,141.06;72.45,138.55;73.32,136.08;74.32,133.66;75.45,131.30;76.70,129.00;78.07,126.77;79.55,124.61;81.14,122.53;82.84,120.54;84.64,118.64;86.54,116.84;88.53,115.14;90.61,113.55;92.77,112.07;95.00,110.70;97.30,109.45;99.66,108.32;102.08,107.32;104.55,106.45;107.06,105.70;109.60,105.09;112.18,104.62;114.77,104.27;117.38,104.07;120.00,104.00;122.62,104.07;125.23,104.27;127.82,104.62;130.40,105.09;132.94,105.70;135.45,106.45;137.92,107.32;140.34,108.32;142.70,109.45;145.00,110.70;147.23,112.07;149.39,113.55;151.47,115.14;153.46,116.84;155.36,118.64;157.16,120.54;158.86,122.53;160.45,124.61;161.93,126.77;163.30,129.00;164.55,131.30;165.68,133.66;166.68,136.08;167.55,138.55;168.30,141.06;168.91,143.60;169.38,146.18;169.73,148.77;169.93,151.38;170.00,154.00" dur="7.0s" repeatCount="indefinite"/><circle cx="0" cy="0" r="25.00" fill="none" stroke="#9775fa" stroke-width="1.5" opacity="0.5"/><line x1="0" y1="0" x2="25.00" y2="0.00" stroke="#9775fa" stroke-width="2.5" stroke-linecap="round"><animate attributeName="x2" values="25.00;24.86;24.45;23.78;22.84;21.65;20.23;18.58;16.73;14.69;12.50;10.17;7.73;5.20;2.61;0.00;-2.61;-5.20;-7.73;-10.17;-12.50;-14.69;-16.73;-18.58;-20.23;-21.65;-22.84;-23.78;-24.45;-24.86;-25.00;-24.86;-24.45;-23.78;-22.84;-21.65;-20.23;-18.58;-16.73;-14.69;-12.50;-10.17;-7.73;-5.20;-2.61;-0.00;2.61;5.20;7.73;10.17;12.50;14.69;16.73;18.58;20.23;21.65;22.84;23.78;24.45;24.86;25.00;24.86;24.45;23.78;22.84;21.65;20.23;18.58;16.73;14.69;12.50;10.17;7.73;5.20;2.61;0.00;-2.61;-5.20;-7.73;-10.17;-12.50;-14.69;-16.73;-18.58;-20.23;-21.65;-22.84;-23.78;-24.45;-24.86;-25.00;-24.86;-24.45;-23.78;-22.84;-21.65;-20.23;-18.58;-16.73;-14.69;-12.50;-10.17;-7.73;-5.20;-2.61;-0.00;2.61;5.20;7.73;10.17;12.50;14.69;16.73;18.58;20.23;21.65;22.84;23.78;24.45;24.86;25.00" dur="7.0s" repeatCount="indefinite"/><animate attributeName="y2" values="0.00;2.61;5.20;7.73;10.17;12.50;14.69;16.73;18.58;20.23;21.65;22.84;23.78;24.45;24.86;25.00;24.86;24.45;23.78;22.84;21.65;20.23;18.58;16.73;14.69;12.50;10.17;7.73;5.20;2.61;0.00;-2.61;-5.20;-7.73;-10.17;-12.50;-14.69;-16.73;-18.58;-20.23;-21.65;-22.84;-23.78;-24.45;-24.86;-25.00;-24.86;-24.45;-23.78;-22.84;-21.65;-20.23;-18.58;-16.73;-14.69;-12.50;-10.17;-7.73;-5.20;-2.61;-0.00;2.61;5.20;7.73;10.17;12.50;14.69;16.73;18.58;20.23;21.65;22.84;23.78;24.45;24.86;25.00;24.86;24.45;23.78;22.84;21.65;20.23;18.58;16.73;14.69;12.50;10.17;7.73;5.20;2.61;0.00;-2.61;-5.20;-7.73;-10.17;-12.50;-14.69;-16.73;-18.58;-20.23;-21.65;-22.84;-23.78;-24.45;-24.86;-25.00;-24.86;-24.45;-23.78;-22.84;-21.65;-20.23;-18.58;-16.73;-14.69;-12.50;-10.17;-7.73;-5.20;-2.61;-0.00" dur="7.0s" repeatCount="indefinite"/></line><circle cx="25.00" cy="0.00" r="3.5" fill="#9775fa"><animate attributeName="cx" values="25.00;24.86;24.45;23.78;22.84;21.65;20.23;18.58;16.73;14.69;12.50;10.17;7.73;5.20;2.61;0.00;-2.61;-5.20;-7.73;-10.17;-12.50;-14.69;-16.73;-18.58;-20.23;-21.65;-22.84;-23.78;-24.45;-24.86;-25.00;-24.86;-24.45;-23.78;-22.84;-21.65;-20.23;-18.58;-16.73;-14.69;-12.50;-10.17;-7.73;-5.20;-2.61;-0.00;2.61;5.20;7.73;10.17;12.50;14.69;16.73;18.58;20.23;21.65;22.84;23.78;24.45;24.86;25.00;24.86;24.45;23.78;22.84;21.65;20.23;18.58;16.73;14.69;12.50;10.17;7.73;5.20;2.61;0.00;-2.61;-5.20;-7.73;-10.17;-12.50;-14.69;-16.73;-18.58;-20.23;-21.65;-22.84;-23.78;-24.45;-24.86;-25.00;-24.86;-24.45;-23.78;-22.84;-21.65;-20.23;-18.58;-16.73;-14.69;-12.50;-10.17;-7.73;-5.20;-2.61;-0.00;2.61;5.20;7.73;10.17;12.50;14.69;16.73;18.58;20.23;21.65;22.84;23.78;24.45;24.86;25.00" dur="7.0s" repeatCount="indefinite"/><animate attributeName="cy" values="0.00;2.61;5.20;7.73;10.17;12.50;14.69;16.73;18.58;20.23;21.65;22.84;23.78;24.45;24.86;25.00;24.86;24.45;23.78;22.84;21.65;20.23;18.58;16.73;14.69;12.50;10.17;7.73;5.20;2.61;0.00;-2.61;-5.20;-7.73;-10.17;-12.50;-14.69;-16.73;-18.58;-20.23;-21.65;-22.84;-23.78;-24.45;-24.86;-25.00;-24.86;-24.45;-23.78;-22.84;-21.65;-20.23;-18.58;-16.73;-14.69;-12.50;-10.17;-7.73;-5.20;-2.61;-0.00;2.61;5.20;7.73;10.17;12.50;14.69;16.73;18.58;20.23;21.65;22.84;23.78;24.45;24.86;25.00;24.86;24.45;23.78;22.84;21.65;20.23;18.58;16.73;14.69;12.50;10.17;7.73;5.20;2.61;0.00;-2.61;-5.20;-7.73;-10.17;-12.50;-14.69;-16.73;-18.58;-20.23;-21.65;-22.84;-23.78;-24.45;-24.86;-25.00;-24.86;-24.45;-23.78;-22.84;-21.65;-20.23;-18.58;-16.73;-14.69;-12.50;-10.17;-7.73;-5.20;-2.61;-0.00" dur="7.0s" repeatCount="indefinite"/></circle></g>
<g><animateTransform attributeName="transform" type="translate" values="195.00,154.00;194.79,159.23;194.18,164.42;193.16,169.55;191.75,174.56;189.95,179.44;187.78,184.15;185.26,188.65;182.41,192.92;179.24,196.92;175.80,200.65;172.10,204.07;168.18,207.17;164.06,209.92;159.77,212.32;155.36,214.36;150.84,216.02;146.27,217.31;141.66,218.23;137.06,218.77;132.50,218.95;128.00,218.78;123.61,218.26;119.34,217.41;115.23,216.25;111.29,214.80;107.56,213.08;104.05,211.11;100.77,208.92;97.75,206.54;95.00,204.00;92.52,201.32;90.32,198.53;88.40,195.66;86.77,192.74;85.41,189.80;84.32,186.86;83.50,183.95;82.93,181.10;82.61,178.32;82.50,175.65;82.60,173.09;82.89,170.67;83.34,168.40;83.93,166.29;84.64,164.36;85.46,162.59;86.34,161.01;87.27,159.61;88.23,158.39;89.20,157.35;90.14,156.47;91.05,155.76;91.90,155.19;92.67,154.76;93.35,154.44;93.93,154.23;94.39,154.10;94.73,154.03;94.93,154.00;95.00,154.00;94.93,154.00;94.73,153.97;94.39,153.90;93.93,153.77;93.35,153.56;92.67,153.24;91.90,152.81;91.05,152.24;90.14,151.53;89.20,150.65;88.23,149.61;87.27,148.39;86.34,146.99;85.46,145.41;84.64,143.64;83.93,141.71;83.34,139.60;82.89,137.33;82.60,134.91;82.50,132.35;82.61,129.68;82.93,126.90;83.50,124.05;84.32,121.14;85.41,118.20;86.77,115.26;88.40,112.34;90.32,109.47;92.52,106.68;95.00,104.00;97.75,101.46;100.77,99.08;104.05,96.89;107.56,94.92;111.29,93.20;115.23,91.75;119.34,90.59;123.61,89.74;128.00,89.22;132.50,89.05;137.06,89.23;141.66,89.77;146.27,90.69;150.84,91.98;155.36,93.64;159.77,95.68;164.06,98.08;168.18,100.83;172.10,103.93;175.80,107.35;179.24,111.08;182.41,115.08;185.26,119.35;187.78,123.85;189.95,128.56;191.75,133.44;193.16,138.45;194.18,143.58;194.79,148.77;195.00,154.00" dur="7.0s" repeatCount="indefinite"/><circle cx="0" cy="0" r="16.70" fill="none" stroke="#ffa94d" stroke-width="1.5" opacity="0.5"/><line x1="0" y1="0" x2="16.70" y2="0.00" stroke="#ffa94d" stroke-width="2.5" stroke-linecap="round"><animate attributeName="x2" values="16.70;16.49;15.88;14.88;13.51;11.81;9.82;7.58;5.16;2.61;0.00;-2.61;-5.16;-7.58;-9.82;-11.81;-13.51;-14.88;-15.88;-16.49;-16.70;-16.49;-15.88;-14.88;-13.51;-11.81;-9.82;-7.58;-5.16;-2.61;-0.00;2.61;5.16;7.58;9.82;11.81;13.51;14.88;15.88;16.49;16.70;16.49;15.88;14.88;13.51;11.81;9.82;7.58;5.16;2.61;0.00;-2.61;-5.16;-7.58;-9.82;-11.81;-13.51;-14.88;-15.88;-16.49;-16.70;-16.49;-15.88;-14.88;-13.51;-11.81;-9.82;-7.58;-5.16;-2.61;-0.00;2.61;5.16;7.58;9.82;11.81;13.51;14.88;15.88;16.49;16.70;16.49;15.88;14.88;13.51;11.81;9.82;7.58;5.16;2.61;0.00;-2.61;-5.16;-7.58;-9.82;-11.81;-13.51;-14.88;-15.88;-16.49;-16.70;-16.49;-15.88;-14.88;-13.51;-11.81;-9.82;-7.58;-5.16;-2.61;0.00;2.61;5.16;7.58;9.82;11.81;13.51;14.88;15.88;16.49;16.70" dur="7.0s" repeatCount="indefinite"/><animate attributeName="y2" values="0.00;2.61;5.16;7.58;9.82;11.81;13.51;14.88;15.88;16.49;16.70;16.49;15.88;14.88;13.51;11.81;9.82;7.58;5.16;2.61;0.00;-2.61;-5.16;-7.58;-9.82;-11.81;-13.51;-14.88;-15.88;-16.49;-16.70;-16.49;-15.88;-14.88;-13.51;-11.81;-9.82;-7.58;-5.16;-2.61;-0.00;2.61;5.16;7.58;9.82;11.81;13.51;14.88;15.88;16.49;16.70;16.49;15.88;14.88;13.51;11.81;9.82;7.58;5.16;2.61;0.00;-2.61;-5.16;-7.58;-9.82;-11.81;-13.51;-14.88;-15.88;-16.49;-16.70;-16.49;-15.88;-14.88;-13.51;-11.81;-9.82;-7.58;-5.16;-2.61;-0.00;2.61;5.16;7.58;9.82;11.81;13.51;14.88;15.88;16.49;16.70;16.49;15.88;14.88;13.51;11.81;9.82;7.58;5.16;2.61;0.00;-2.61;-5.16;-7.58;-9.82;-11.81;-13.51;-14.88;-15.88;-16.49;-16.70;-16.49;-15.88;-14.88;-13.51;-11.81;-9.82;-7.58;-5.16;-2.61;-0.00" dur="7.0s" repeatCount="indefinite"/></line><circle cx="16.70" cy="0.00" r="3.5" fill="#ffa94d"><animate attributeName="cx" values="16.70;16.49;15.88;14.88;13.51;11.81;9.82;7.58;5.16;2.61;0.00;-2.61;-5.16;-7.58;-9.82;-11.81;-13.51;-14.88;-15.88;-16.49;-16.70;-16.49;-15.88;-14.88;-13.51;-11.81;-9.82;-7.58;-5.16;-2.61;-0.00;2.61;5.16;7.58;9.82;11.81;13.51;14.88;15.88;16.49;16.70;16.49;15.88;14.88;13.51;11.81;9.82;7.58;5.16;2.61;0.00;-2.61;-5.16;-7.58;-9.82;-11.81;-13.51;-14.88;-15.88;-16.49;-16.70;-16.49;-15.88;-14.88;-13.51;-11.81;-9.82;-7.58;-5.16;-2.61;-0.00;2.61;5.16;7.58;9.82;11.81;13.51;14.88;15.88;16.49;16.70;16.49;15.88;14.88;13.51;11.81;9.82;7.58;5.16;2.61;0.00;-2.61;-5.16;-7.58;-9.82;-11.81;-13.51;-14.88;-15.88;-16.49;-16.70;-16.49;-15.88;-14.88;-13.51;-11.81;-9.82;-7.58;-5.16;-2.61;0.00;2.61;5.16;7.58;9.82;11.81;13.51;14.88;15.88;16.49;16.70" dur="7.0s" repeatCount="indefinite"/><animate attributeName="cy" values="0.00;2.61;5.16;7.58;9.82;11.81;13.51;14.88;15.88;16.49;16.70;16.49;15.88;14.88;13.51;11.81;9.82;7.58;5.16;2.61;0.00;-2.61;-5.16;-7.58;-9.82;-11.81;-13.51;-14.88;-15.88;-16.49;-16.70;-16.49;-15.88;-14.88;-13.51;-11.81;-9.82;-7.58;-5.16;-2.61;-0.00;2.61;5.16;7.58;9.82;11.81;13.51;14.88;15.88;16.49;16.70;16.49;15.88;14.88;13.51;11.81;9.82;7.58;5.16;2.61;0.00;-2.61;-5.16;-7.58;-9.82;-11.81;-13.51;-14.88;-15.88;-16.49;-16.70;-16.49;-15.88;-14.88;-13.51;-11.81;-9.82;-7.58;-5.16;-2.61;-0.00;2.61;5.16;7.58;9.82;11.81;13.51;14.88;15.88;16.49;16.70;16.49;15.88;14.88;13.51;11.81;9.82;7.58;5.16;2.61;0.00;-2.61;-5.16;-7.58;-9.82;-11.81;-13.51;-14.88;-15.88;-16.49;-16.70;-16.49;-15.88;-14.88;-13.51;-11.81;-9.82;-7.58;-5.16;-2.61;-0.00" dur="7.0s" repeatCount="indefinite"/></circle></g>
</svg>
